PathFileType	4	(X/Y/Z)	C:\Users\°ÂÌØÂü\Desktop\20201223\Trimmed_bx_n_5_901.trc
DataRate	CameraRate	NumFrames	NumMarkers	Units	OrigDataRate	OrigDataStartFrame	OrigNumFrames
50.00	50.00	       5	43	mm	50.00	51	       402
Frame#	Time	Top.Head			R.Acromium			L.Acromium			Sternum			R.ASIS			L.ASIS			V.Sacral			R.Thigh.Upper			R.Thigh.Front			R.Thigh.Rear			R.Knee.Lat			R.Knee.Med			R.Shank.Upper			R.Shank.Front			R.Shank.Rear			R.Ankle.Lat			R.Midfoot.Lat			R.Toe.Lat			R.Toe.Tip			R.Toe.Med			R.Ankle.Med			R.Midfoot.Sup			R.Heel			L.Thigh.Upper			L.Thigh.Front			L.Thigh.Rear			L.Knee.Lat			L.Knee.Med			L.Shank.Upper			L.Shank.Front			L.Shank.Rear			L.Ankle.Lat			L.Midfoot.Lat			L.Toe.Lat			L.Toe.Tip			L.Toe.Med			L.Ankle.Med			L.Midfoot.Sup			L.Heel			origin1 front left			origin2 front right			origin 3 back right			origin 4 back leftt			
		X1	Y1	Z1	X2	Y2	Z2	X3	Y3	Z3	X4	Y4	Z4	X5	Y5	Z5	X6	Y6	Z6	X7	Y7	Z7	X8	Y8	Z8	X9	Y9	Z9	X10	Y10	Z10	X11	Y11	Z11	X12	Y12	Z12	X13	Y13	Z13	X14	Y14	Z14	X15	Y15	Z15	X16	Y16	Z16	X17	Y17	Z17	X18	Y18	Z18	X19	Y19	Z19	X20	Y20	Z20	X21	Y21	Z21	X22	Y22	Z22	X23	Y23	Z23	X24	Y24	Z24	X25	Y25	Z25	X26	Y26	Z26	X27	Y27	Z27	X28	Y28	Z28	X29	Y29	Z29	X30	Y30	Z30	X31	Y31	Z31	X32	Y32	Z32	X33	Y33	Z33	X34	Y34	Z34	X35	Y35	Z35	X36	Y36	Z36	X37	Y37	Z37	X38	Y38	Z38	X39	Y39	Z39	X40	Y40	Z40	X41	Y41	Z41	X42	Y42	Z42	X43	Y43	Z43	

51	1.000	-76.57254	248.47760	1281.73230	-274.19061	83.13676	1108.77576	-292.64252	400.96106	1105.90491	-446.01736	238.09802	1066.50818	-719.22632	127.03635	973.90991	-690.92859	349.49222	969.02759	-870.09064	253.04341	1091.32544	-795.26050	78.48341	818.87457	-699.50555	143.27959	809.04626	-765.93176	86.69489	710.07428	-767.43671	114.82733	590.93542	-746.98712	224.00734	552.33350	-778.70593	111.77021	524.27179	-704.95551	170.32175	528.00604	-772.36279	102.55635	472.64203	-694.72821	134.41687	210.62337	-606.43817	85.63733	163.28123	-558.02832	69.54488	160.96097	-484.93091	121.05725	157.39011	-534.41113	167.82266	163.78210	-658.19489	216.16919	225.19156	-603.58820	197.44016	174.93506	-731.73718	196.51848	170.66081	-778.35565	442.56241	845.02386	-691.36377	381.07611	809.38409	-772.59167	436.05969	726.24127	-758.20496	409.49408	592.89478	-752.03607	293.79590	562.26514	-762.88800	413.39520	546.98706	-704.38397	352.67093	534.02710	-799.56586	419.48541	472.35724	-684.40594	409.40048	213.04190	-580.70441	450.76068	162.56122	-543.44440	462.24246	157.12996	-482.37772	406.58905	165.23981	-526.09198	369.03439	175.98669	-653.79022	316.36496	212.05396	-597.56696	332.08673	173.27248	-734.63080	338.11749	162.21313	-443.92316	448.40750	146.35687	-450.64520	74.82796	143.21220	-806.24640	82.20802	140.86116	-799.76160	456.39679	144.73706	
52	1.020	-75.05182	248.06641	1272.20581	-273.00626	83.44746	1101.85291	-291.66129	400.42456	1097.96155	-445.51099	238.10599	1062.38159	-720.37177	126.93813	972.73389	-692.36328	349.36475	967.87354	-870.60394	252.63522	1091.39685	-796.38574	78.22395	818.50220	-700.71252	143.16869	808.79462	-766.83990	86.37566	709.79333	-768.12384	114.68227	590.70538	-747.64575	223.85312	552.13062	-779.30627	111.54570	524.14563	-705.56903	170.22676	527.84729	-772.89795	102.45209	472.43292	-694.79492	134.43658	210.53777	-606.44586	85.61820	163.25571	-558.04352	69.48889	160.95718	-484.93680	121.08337	157.41348	-534.41791	167.82539	163.79153	-658.20105	216.12852	225.14661	-603.61053	197.42644	174.94930	-731.75647	196.48141	170.52396	-779.71423	442.41214	844.84973	-692.60101	380.92102	809.24567	-773.60944	436.03238	726.07977	-758.87927	409.43222	592.73657	-753.39984	293.45816	562.19647	-763.38898	413.42334	546.86975	-705.02441	352.48541	533.90186	-799.92554	419.63440	472.14835	-684.43176	409.49237	212.97432	-580.61841	450.67892	162.64694	-543.38281	462.22946	157.13387	-482.36392	406.54318	165.27493	-526.08093	368.98764	175.95383	-653.85760	316.38062	212.03671	-597.57227	332.05081	173.31519	-734.62372	338.17328	162.22214	-443.93185	448.41257	146.35184	-450.64413	74.83004	143.21776	-806.25458	82.21520	140.85629	-799.74084	456.39648	144.75468	
53	1.040	-73.73914	247.69165	1263.32910	-272.05383	83.77014	1095.44836	-290.93402	400.02350	1090.54688	-445.02060	238.12216	1058.41162	-721.39166	126.82481	971.65057	-693.69989	349.22366	966.78711	-871.06586	252.20461	1091.44043	-797.33472	77.93198	818.17419	-701.76709	143.06161	808.58478	-767.58484	86.05328	709.54205	-768.67694	114.49635	590.51282	-748.22729	223.70549	551.95447	-779.80823	111.26347	524.06482	-706.09052	170.11739	527.68396	-773.34015	102.29133	472.25067	-694.85156	134.44925	210.45825	-606.44965	85.60371	163.23743	-558.05273	69.43636	160.95508	-484.94028	121.10969	157.43596	-534.42224	167.83377	163.80347	-658.21411	216.08249	225.08928	-603.64288	197.40639	174.97105	-731.79102	196.41937	170.38420	-781.00092	442.23056	844.67444	-693.74152	380.80060	809.11279	-774.59229	435.99298	725.92633	-759.51288	409.36606	592.59448	-754.71179	293.14221	562.11029	-763.87463	413.44791	546.74774	-705.63715	352.30014	533.76318	-800.26862	419.73294	471.93231	-684.47791	409.57562	212.90483	-580.54791	450.59827	162.72881	-543.33020	462.20773	157.14146	-482.35583	406.50766	165.31120	-526.07965	368.95590	175.93442	-653.92365	316.38818	211.99490	-597.57684	332.02734	173.35420	-734.62317	338.21869	162.20508	-443.93872	448.41696	146.34207	-450.64154	74.83076	143.22385	-806.26422	82.22054	140.85680	-799.73022	456.39191	144.75671	
54	1.060	-72.62332	247.39813	1255.09644	-271.33383	84.09191	1089.53894	-290.42892	399.75403	1083.65698	-444.54620	238.14636	1054.59790	-722.29688	126.68935	970.66699	-694.94470	349.06772	965.76642	-871.48108	251.75717	1091.45374	-798.12415	77.61010	817.89447	-702.67767	142.95096	808.41968	-768.18567	85.73144	709.32166	-769.11023	114.26813	590.36224	-748.73608	223.55034	551.79749	-780.22137	110.94085	524.00830	-706.52850	169.99188	527.52496	-773.69403	102.07912	472.09009	-694.89844	134.44879	210.38583	-606.44836	85.59592	163.22780	-558.05426	69.38975	160.95448	-484.94012	121.13708	157.45584	-534.42444	167.84845	163.81845	-658.23969	216.02979	225.02774	-603.68292	197.38046	175.00154	-731.83832	196.33452	170.24924	-782.21790	442.01297	844.49463	-694.79834	380.69644	808.98267	-775.53894	435.94046	725.77435	-760.10907	409.28967	592.46356	-755.97363	292.84491	562.00867	-764.35864	413.46017	546.61609	-706.22064	352.12515	533.61664	-800.60205	419.76971	471.70969	-684.54327	409.64490	212.83522	-580.49860	450.52277	162.80145	-543.29205	462.17496	157.15579	-482.35632	406.48114	165.34145	-526.08923	368.93976	175.92899	-653.99396	316.38483	211.93103	-597.58221	332.01486	173.38348	-734.62860	338.25104	162.16530	-443.94168	448.42233	146.32930	-450.63806	74.83079	143.22897	-806.27258	82.22260	140.86324	-799.72711	456.39163	144.75168	
55	1.080	-71.69028	247.22459	1247.49878	-270.83435	84.39841	1084.10522	-290.11673	399.60443	1077.28784	-444.08786	238.17831	1050.93970	-723.10095	126.52848	969.78583	-696.10437	348.89609	964.81342	-871.85498	251.30127	1091.43799	-798.77698	77.26431	817.66205	-703.45715	142.82887	808.29822	-768.66718	85.41370	709.13116	-769.44403	114.00046	590.25293	-749.17688	223.37593	551.65680	-780.55664	110.60399	523.95093	-706.89490	169.85005	527.37701	-773.96759	101.83052	471.94485	-694.93799	134.42934	210.31918	-606.44214	85.59588	163.22662	-558.04797	69.35137	160.95596	-484.93634	121.16699	157.47253	-534.42505	167.86917	163.83707	-658.28131	215.96950	224.97028	-603.72717	197.35049	175.03943	-731.89484	196.23314	170.12393	-783.36273	441.75851	844.31030	-695.78278	380.58505	808.85254	-776.44092	435.87143	725.62006	-760.66650	409.19888	592.33771	-757.18634	292.56400	561.89301	-764.84723	413.45392	546.47272	-706.76855	351.96957	533.47052	-800.92932	419.74402	471.48587	-684.62225	409.69562	212.76756	-580.47302	450.45544	162.86131	-543.27161	462.12988	157.17931	-482.36694	406.46201	165.36095	-526.11060	368.93829	175.93573	-654.07343	316.37119	211.85132	-597.59186	332.00977	173.39886	-734.64056	338.26990	162.10675	-443.94016	448.42838	146.31395	-450.63553	74.83179	143.23146	-806.27838	82.22094	140.87497	-799.72809	456.40219	144.74809	
